<svg xmlns="http://www.w3.org/2000/svg" version="1.1" xmlns:xlink="http://www.w3.org/1999/xlink" xmlns:svgjs="http://svgjs.dev/svgjs" width="128" height="128" viewBox="0 0 128 128"><g transform="matrix(0.49282296650717705,0,0,0.49282296650717705,32.70810992434821,12.760752631578946)"><svg viewBox="0 0 58 95" data-background-color="#2f6ba7" preserveAspectRatio="xMidYMid meet" height="209" width="128" xmlns="http://www.w3.org/2000/svg" xmlns:xlink="http://www.w3.org/1999/xlink"><g id="tight-bounds" transform="matrix(1,0,0,1,-0.22874002601251675,-0.24049999999999727)"><svg viewBox="0 0 58.45748005202503 95.481" height="95.481" width="58.45748005202503"><g><svg viewBox="0 0 58.45748005202503 95.481" height="95.481" width="58.45748005202503"><g><svg viewBox="0 0 58.45748005202503 95.481" height="95.481" width="58.45748005202503"><g id="textblocktransform"><svg viewBox="0 0 58.45748005202503 95.481" height="95.481" width="58.45748005202503" id="textblock"><g><svg viewBox="0 0 58.45748005202503 95.481" height="95.481" width="58.45748005202503"><g><svg viewBox="0 0 58.45748005202503 95.481" height="95.481" width="58.45748005202503"><g><svg xmlns="http://www.w3.org/2000/svg" xmlns:xlink="http://www.w3.org/1999/xlink" version="1.1" x="0" y="0" viewBox="20.552 0.2859999999999978 60.724 99.183" enable-background="new 0 0 100 100" xml:space="preserve" height="95.481" width="58.45748005202503" class="icon-icon-0" data-fill-palette-color="accent" id="icon-0"><polygon fill="none" points="46.866,95.42 54.962,95.42 54.962,90.866 50.914,90.866 50.914,87.83 54.962,87.83 54.962,84.793   50.914,84.793 50.914,81.758 54.962,81.758 54.962,79.228 46.866,79.228 "></polygon><path fill="none" d="M41.029 61.986c2.581 4.437 4.953 9.321 5.63 13.193h8.511c0.676-3.873 3.048-8.757 5.63-13.193-3.16 1.646-6.501 2.598-9.886 2.598C47.529 64.584 44.188 63.632 41.029 61.986z"></path><path fill="none" d="M50.914 4.334c-14.018 0-26.314 11.35-26.314 24.29 0 7.062 3.503 15.348 8.713 21.715l0.008-0.006c0.021 0.029 0.067 0.09 0.093 0.125 4.84 5.866 11.128 10.078 17.5 10.078s12.66-4.212 17.5-10.078c0.026-0.036 0.072-0.097 0.093-0.125l0.008 0.006c5.21-6.367 8.713-14.653 8.713-21.715C77.228 15.685 64.932 4.334 50.914 4.334z"></path><g fill="#eb0202" data-fill-palette-color="accent"><g fill="#eb0202" data-fill-palette-color="accent"><path fill="#eb0202" d="M43.448 25.312c-1.404 0-2.544 1.14-2.544 2.547 0 1.403 1.14 2.542 2.544 2.542 1.408 0 2.548-1.139 2.548-2.542C45.996 26.452 44.856 25.312 43.448 25.312zM43.448 32.945c-1.404 0-2.544 1.143-2.544 2.544 0 1.407 1.14 2.548 2.544 2.548 1.408 0 2.548-1.141 2.548-2.548C45.996 34.088 44.856 32.945 43.448 32.945zM51.089 40.581c-1.406 0-2.549 1.138-2.549 2.547 0 1.402 1.143 2.542 2.549 2.542 1.404 0 2.542-1.139 2.542-2.542C53.63 41.719 52.493 40.581 51.089 40.581zM43.448 17.675c-1.404 0-2.544 1.141-2.544 2.548 0 1.405 1.14 2.544 2.544 2.544 1.408 0 2.548-1.139 2.548-2.544C45.996 18.815 44.856 17.675 43.448 17.675zM35.825 32.945c-1.413 0-2.548 1.143-2.548 2.544 0 1.407 1.135 2.548 2.548 2.548 1.399 0 2.544-1.141 2.544-2.548C38.369 34.088 37.224 32.945 35.825 32.945zM35.825 25.312c-1.413 0-2.548 1.14-2.548 2.547 0 1.403 1.135 2.542 2.548 2.542 1.399 0 2.544-1.139 2.544-2.542C38.369 26.452 37.224 25.312 35.825 25.312zM43.448 40.581c-1.404 0-2.544 1.138-2.544 2.547 0 1.402 1.14 2.542 2.544 2.542 1.408 0 2.548-1.139 2.548-2.542C45.996 41.719 44.856 40.581 43.448 40.581zM51.089 25.312c-1.406 0-2.547 1.14-2.547 2.547 0 1.403 1.141 2.542 2.547 2.542 1.404 0 2.545-1.139 2.545-2.542C53.634 26.452 52.493 25.312 51.089 25.312zM58.72 17.675c-1.399 0-2.542 1.141-2.542 2.548 0 1.405 1.143 2.544 2.542 2.544 1.412 0 2.542-1.139 2.542-2.544C61.262 18.815 60.131 17.675 58.72 17.675zM58.72 32.945c-1.399 0-2.542 1.143-2.542 2.544 0 1.407 1.143 2.548 2.542 2.548 1.412 0 2.542-1.141 2.542-2.548C61.262 34.088 60.131 32.945 58.72 32.945zM58.72 25.312c-1.399 0-2.542 1.14-2.542 2.547 0 1.403 1.143 2.542 2.542 2.542 1.412 0 2.542-1.139 2.542-2.542C61.262 26.452 60.131 25.312 58.72 25.312zM66.358 32.945c-1.406 0-2.546 1.143-2.546 2.544 0 1.407 1.141 2.548 2.546 2.548s2.546-1.141 2.546-2.548C68.904 34.088 67.764 32.945 66.358 32.945zM51.089 32.945c-1.406 0-2.549 1.143-2.549 2.544 0 1.407 1.143 2.548 2.549 2.548 1.404 0 2.542-1.141 2.542-2.548C53.63 34.088 52.493 32.945 51.089 32.945zM58.72 41.217c-1.399 0-2.542 1.141-2.542 2.547 0 1.403 1.143 2.544 2.542 2.544 1.412 0 2.542-1.141 2.542-2.544C61.262 42.358 60.131 41.217 58.72 41.217zM66.358 25.312c-1.406 0-2.546 1.14-2.546 2.547 0 1.403 1.141 2.542 2.546 2.542s2.546-1.139 2.546-2.542C68.904 26.452 67.764 25.312 66.358 25.312zM51.089 17.675c-1.406 0-2.547 1.141-2.547 2.548 0 1.405 1.141 2.544 2.547 2.544 1.404 0 2.545-1.139 2.545-2.544C53.634 18.815 52.493 17.675 51.089 17.675zM81.276 28.624c0-15.096-14.188-28.338-30.362-28.338S20.552 13.528 20.552 28.624c0 7.95 3.777 17.063 9.534 24.129l-0.007 0.005c3.542 4.731 12.728 18.339 12.738 24.434v22.277H59.01V77.203c-0.002-6.084 9.195-19.708 12.738-24.445l-0.007-0.005C77.499 45.688 81.276 36.574 81.276 28.624zM54.962 81.758h-4.048v3.036h4.048v3.037h-4.048v3.036h4.048v4.554h-8.097V79.228h8.097V81.758zM55.17 75.179h-8.511c-0.677-3.873-3.049-8.757-5.63-13.193 3.159 1.646 6.5 2.598 9.885 2.598 3.385 0 6.726-0.952 9.886-2.598C58.218 66.422 55.846 71.307 55.17 75.179zM68.507 50.333c-0.021 0.029-0.067 0.09-0.093 0.125-4.84 5.866-11.127 10.078-17.5 10.078s-12.66-4.212-17.5-10.078c-0.025-0.036-0.072-0.097-0.093-0.125l-0.008 0.006c-5.21-6.367-8.713-14.653-8.713-21.715 0-12.939 12.296-24.29 26.314-24.29s26.314 11.35 26.314 24.29c0 7.062-3.503 15.348-8.713 21.715L68.507 50.333z" data-fill-palette-color="accent"></path></g></g></svg></g></svg></g></svg></g></svg></g></svg></g></svg></g><defs></defs></svg><rect width="58.45748005202503" height="95.481" fill="none" stroke="none" visibility="hidden"></rect></g></svg></g></svg>